# xmcd CD database file
#
# Track frame offsets:
#	150
#	15299
#	28851
#	41510
#	57578
#	70866
#	85486
#	101046
#	118362
#	132563
#	152300
#	166121
#	182248
#	196633
#	211020
#	224611
#	235601
#	251500
#	270466
#	288916
#
# Disc length: 4039 seconds
#
# Revision: 0
# Processed by: cddbd v1.5PL3 Copyright (c) Steve Scherf et al.
# Submitted via: CDex 1.51
#
DISCID=180fc514
DTITLE=Truck Stop - 30 Jahre
DYEAR=1900
DGENRE=Country
TTITLE0=Easy Rider
TTITLE1=Take It Easy, Altes Haus
TTITLE2=Der Wilde, Wilde Westen
TTITLE3=Ich Möchte´ So Gern Dave Dudle
TTITLE4=Die Frau Mit Dem Gurt
TTITLE5=Der Tramp
TTITLE6=Henry´s Farm
TTITLE7=Old Texas Town, Die Westernsta
TTITLE8=Das Gibt´s Doch Nur In Dallas
TTITLE9=Nein Danke, Ich Rauch´ Nicht M
TTITLE10=Hilly Billy Country Lilly
TTITLE11=Der Roadie Von Der Country Ban
TTITLE12=Nashville Tennessee
TTITLE13=Happy Birthday
TTITLE14=Du Kannst Geh´n
TTITLE15=Osnabrück Hin Und Zurück
TTITLE16=Ich Rauch´ Zuviel
TTITLE17=Rock N´ Roll Hotel
TTITLE18=Sie Will Zurück Nach München
TTITLE19=Jetzt Ist Schluss
EXTD=
EXTT0=
EXTT1=
EXTT2=
EXTT3=
EXTT4=
EXTT5=
EXTT6=
EXTT7=
EXTT8=
EXTT9=
EXTT10=
EXTT11=
EXTT12=
EXTT13=
EXTT14=
EXTT15=
EXTT16=
EXTT17=
EXTT18=
EXTT19=
PLAYORDER=
